<svg xmlns="http://www.w3.org/2000/svg" viewBox="0 0 860 455" width="860" height="455" role="img" aria-label="Anatomy of a diagram: muted string, open string, fret window, barre and finger number"><title>Anatomy of a diagram: muted string, open string, fret window, barre and finger number</title><rect x="0.5" y="0.5" width="859" height="454" rx="14" fill="#f9f6f1" stroke="#dfdad4"/><g transform="translate(229.8 34) scale(2.6)"><rect x="31.425" y="53.4" width="90.925" height="1.2" fill="#b0aaa3"/><rect x="31.425" y="73.4" width="90.925" height="1.2" fill="#b0aaa3"/><rect x="31.425" y="93.4" width="90.925" height="1.2" fill="#b0aaa3"/><rect x="31.425" y="113.4" width="90.925" height="1.2" fill="#b0aaa3"/><rect x="31.425" y="34" width="1.15" height="80.6" fill="#3d3732"/><rect x="49.47" y="34" width="1.0599999999999998" height="80.6" fill="#3d3732"/><rect x="67.515" y="34" width="0.97" height="80.6" fill="#3d3732"/><rect x="85.56" y="34" width="0.8799999999999999" height="80.6" fill="#3d3732"/><rect x="103.605" y="34" width="0.7899999999999999" height="80.6" fill="#3d3732"/><rect x="121.65" y="34" width="0.7" height="80.6" fill="#3d3732"/><rect x="31.425" y="33.4" width="90.925" height="1.2" fill="#b0aaa3"/><rect x="61.7" y="77.7" width="48.6" height="12.6" rx="6.3" fill="#b0503e"/><line x1="29" y1="18.5" x2="35" y2="24.5" stroke="#b0aaa3" stroke-width="1.4" stroke-linecap="round"/><line x1="35" y1="18.5" x2="29" y2="24.5" stroke="#b0aaa3" stroke-width="1.4" stroke-linecap="round"/><circle cx="50" cy="21.5" r="3.5" fill="none" stroke="#3d3732" stroke-width="1.3"/><circle cx="122" cy="44" r="6.3" fill="#b0503e"/><text x="86" y="86.8" font-family="Helvetica Neue, Helvetica, Arial, sans-serif" font-size="8" font-weight="600" fill="#f9f6f1" text-anchor="middle">3</text><text x="122" y="46.8" font-family="Helvetica Neue, Helvetica, Arial, sans-serif" font-size="8" font-weight="600" fill="#f9f6f1" text-anchor="middle">1</text><text x="22" y="46.87" font-family="IBM Plex Mono, ui-monospace, monospace" font-size="8.2" font-weight="400" fill="#68625c" text-anchor="end">5fr</text></g><line x1="205.8" y1="89.9" x2="299.2" y2="89.9" stroke="#b0aaa3" stroke-width="1"/><circle cx="299.2" cy="89.9" r="2.6" fill="#3d3732"/><text x="195.8" y="84.9" text-anchor="end" font-family="IBM Plex Mono, ui-monospace, monospace" font-size="11" letter-spacing="1.4" fill="#b0503e">MUTED STRING</text><text x="195.8" y="103.9" text-anchor="end" font-family="IBM Plex Mono, ui-monospace, monospace" font-size="12" fill="#5e5750">frets[0] = -1</text><line x1="205.8" y1="148.4" x2="231" y2="148.4" stroke="#b0aaa3" stroke-width="1"/><circle cx="231" cy="148.4" r="2.6" fill="#3d3732"/><text x="195.8" y="143.4" text-anchor="end" font-family="IBM Plex Mono, ui-monospace, monospace" font-size="11" letter-spacing="1.4" fill="#b0503e">FRET WINDOW</text><text x="195.8" y="162.4" text-anchor="end" font-family="IBM Plex Mono, ui-monospace, monospace" font-size="12" fill="#5e5750">starts at fret 5</text><line x1="623.38" y1="89.9" x2="374.9" y2="89.9" stroke="#b0aaa3" stroke-width="1"/><circle cx="374.9" cy="89.9" r="2.6" fill="#3d3732"/><text x="633.38" y="84.9" text-anchor="start" font-family="IBM Plex Mono, ui-monospace, monospace" font-size="11" letter-spacing="1.4" fill="#b0503e">OPEN STRING</text><text x="633.38" y="103.9" text-anchor="start" font-family="IBM Plex Mono, ui-monospace, monospace" font-size="12" fill="#5e5750">frets[1] = 0</text><line x1="623.38" y1="148.4" x2="569.38" y2="148.4" stroke="#b0aaa3" stroke-width="1"/><circle cx="569.38" cy="148.4" r="2.6" fill="#3d3732"/><text x="633.38" y="143.4" text-anchor="start" font-family="IBM Plex Mono, ui-monospace, monospace" font-size="11" letter-spacing="1.4" fill="#b0503e">FINGER NUMBER</text><text x="633.38" y="162.4" text-anchor="start" font-family="IBM Plex Mono, ui-monospace, monospace" font-size="12" fill="#5e5750">fingers[5] = 1</text><line x1="623.38" y1="252.4" x2="522.58" y2="252.4" stroke="#b0aaa3" stroke-width="1"/><circle cx="522.58" cy="252.4" r="2.6" fill="#3d3732"/><text x="633.38" y="247.4" text-anchor="start" font-family="IBM Plex Mono, ui-monospace, monospace" font-size="11" letter-spacing="1.4" fill="#b0503e">BARRE</text><text x="633.38" y="266.4" text-anchor="start" font-family="IBM Plex Mono, ui-monospace, monospace" font-size="12" fill="#5e5750">fret 7, strings 2–4</text><text x="313" y="364.8" text-anchor="middle" font-family="IBM Plex Mono, ui-monospace, monospace" font-size="13" fill="#68625c">E</text><text x="359.8" y="364.8" text-anchor="middle" font-family="IBM Plex Mono, ui-monospace, monospace" font-size="13" fill="#68625c">A</text><text x="406.6" y="364.8" text-anchor="middle" font-family="IBM Plex Mono, ui-monospace, monospace" font-size="13" fill="#68625c">D</text><text x="453.4" y="364.8" text-anchor="middle" font-family="IBM Plex Mono, ui-monospace, monospace" font-size="13" fill="#68625c">G</text><text x="500.2" y="364.8" text-anchor="middle" font-family="IBM Plex Mono, ui-monospace, monospace" font-size="13" fill="#68625c">B</text><text x="547" y="364.8" text-anchor="middle" font-family="IBM Plex Mono, ui-monospace, monospace" font-size="13" fill="#68625c">e</text><text x="430" y="406.8" text-anchor="middle" font-family="Helvetica Neue, Helvetica, Arial, sans-serif" font-size="22" font-weight="600" fill="#241e1a">D/A</text><text x="430" y="428.8" text-anchor="middle" font-family="IBM Plex Mono, ui-monospace, monospace" font-size="12" letter-spacing="1" fill="#68625c">BARRE</text></svg>
